<mxfile host="app.diagrams.net" modified="2023-08-26T00:48:22.484Z" agent="Mozilla/5.0 (X11; Ubuntu; Linux x86_64; rv:109.0) Gecko/20100101 Firefox/114.0" etag="md3_l-P-keFhm8VNvLqe" version="21.1.7" type="device">
  <diagram name="Page-1" id="e7e014a7-5840-1c2e-5031-d8a46d1fe8dd">
    <mxGraphModel dx="558" dy="967" grid="1" gridSize="10" guides="1" tooltips="1" connect="1" arrows="1" fold="1" page="1" pageScale="1" pageWidth="1169" pageHeight="826" background="none" math="0" shadow="0">
      <root>
        <mxCell id="0" />
        <mxCell id="1" parent="0" />
        <mxCell id="0GWwVRd2wh_KG7VS4aAy-45" value="" style="edgeStyle=orthogonalEdgeStyle;rounded=0;orthogonalLoop=1;jettySize=auto;html=1;" edge="1" parent="1" source="0GWwVRd2wh_KG7VS4aAy-41" target="0GWwVRd2wh_KG7VS4aAy-53">
          <mxGeometry relative="1" as="geometry">
            <mxPoint x="585" y="120" as="targetPoint" />
          </mxGeometry>
        </mxCell>
        <mxCell id="0GWwVRd2wh_KG7VS4aAy-41" value="" style="ellipse;html=1;shape=startState;fillColor=#000000;strokeColor=#ff0000;" vertex="1" parent="1">
          <mxGeometry x="570" y="40" width="30" height="30" as="geometry" />
        </mxCell>
        <mxCell id="0GWwVRd2wh_KG7VS4aAy-51" style="edgeStyle=orthogonalEdgeStyle;rounded=0;orthogonalLoop=1;jettySize=auto;html=1;" edge="1" parent="1" source="0GWwVRd2wh_KG7VS4aAy-46" target="0GWwVRd2wh_KG7VS4aAy-48">
          <mxGeometry relative="1" as="geometry" />
        </mxCell>
        <mxCell id="0GWwVRd2wh_KG7VS4aAy-52" value="&lt;div&gt;No&lt;/div&gt;" style="edgeLabel;html=1;align=center;verticalAlign=middle;resizable=0;points=[];" vertex="1" connectable="0" parent="0GWwVRd2wh_KG7VS4aAy-51">
          <mxGeometry x="-0.319" y="-1" relative="1" as="geometry">
            <mxPoint x="-85" y="-1" as="offset" />
          </mxGeometry>
        </mxCell>
        <mxCell id="0GWwVRd2wh_KG7VS4aAy-57" value="&lt;div&gt;Yes&lt;/div&gt;" style="edgeStyle=orthogonalEdgeStyle;rounded=0;orthogonalLoop=1;jettySize=auto;html=1;" edge="1" parent="1" source="0GWwVRd2wh_KG7VS4aAy-46" target="0GWwVRd2wh_KG7VS4aAy-55">
          <mxGeometry relative="1" as="geometry" />
        </mxCell>
        <mxCell id="0GWwVRd2wh_KG7VS4aAy-46" value="&lt;div&gt;Parse Succeeded?&lt;/div&gt;" style="rhombus;whiteSpace=wrap;html=1;" vertex="1" parent="1">
          <mxGeometry x="545" y="220" width="80" height="80" as="geometry" />
        </mxCell>
        <mxCell id="0GWwVRd2wh_KG7VS4aAy-48" value="" style="ellipse;html=1;shape=endState;fillColor=#000000;strokeColor=#ff0000;" vertex="1" parent="1">
          <mxGeometry x="790" y="550" width="30" height="30" as="geometry" />
        </mxCell>
        <mxCell id="0GWwVRd2wh_KG7VS4aAy-54" value="" style="edgeStyle=orthogonalEdgeStyle;rounded=0;orthogonalLoop=1;jettySize=auto;html=1;" edge="1" parent="1" source="0GWwVRd2wh_KG7VS4aAy-53" target="0GWwVRd2wh_KG7VS4aAy-46">
          <mxGeometry relative="1" as="geometry" />
        </mxCell>
        <mxCell id="0GWwVRd2wh_KG7VS4aAy-53" value="Parse Command Line Args" style="rounded=1;whiteSpace=wrap;html=1;" vertex="1" parent="1">
          <mxGeometry x="525" y="120" width="120" height="60" as="geometry" />
        </mxCell>
        <mxCell id="0GWwVRd2wh_KG7VS4aAy-59" value="" style="edgeStyle=orthogonalEdgeStyle;rounded=0;orthogonalLoop=1;jettySize=auto;html=1;" edge="1" parent="1" source="0GWwVRd2wh_KG7VS4aAy-55" target="0GWwVRd2wh_KG7VS4aAy-58">
          <mxGeometry relative="1" as="geometry" />
        </mxCell>
        <mxCell id="0GWwVRd2wh_KG7VS4aAy-55" value="Validate Simulation Configurations" style="rounded=1;whiteSpace=wrap;html=1;" vertex="1" parent="1">
          <mxGeometry x="525" y="345" width="120" height="60" as="geometry" />
        </mxCell>
        <mxCell id="0GWwVRd2wh_KG7VS4aAy-63" value="Yes" style="edgeStyle=orthogonalEdgeStyle;rounded=0;orthogonalLoop=1;jettySize=auto;html=1;" edge="1" parent="1" source="0GWwVRd2wh_KG7VS4aAy-58" target="0GWwVRd2wh_KG7VS4aAy-62">
          <mxGeometry relative="1" as="geometry" />
        </mxCell>
        <mxCell id="0GWwVRd2wh_KG7VS4aAy-71" style="edgeStyle=orthogonalEdgeStyle;rounded=0;orthogonalLoop=1;jettySize=auto;html=1;exitX=1;exitY=0.5;exitDx=0;exitDy=0;entryX=0.5;entryY=0;entryDx=0;entryDy=0;" edge="1" parent="1" source="0GWwVRd2wh_KG7VS4aAy-58" target="0GWwVRd2wh_KG7VS4aAy-48">
          <mxGeometry relative="1" as="geometry" />
        </mxCell>
        <mxCell id="0GWwVRd2wh_KG7VS4aAy-72" value="No" style="edgeLabel;html=1;align=center;verticalAlign=middle;resizable=0;points=[];" vertex="1" connectable="0" parent="0GWwVRd2wh_KG7VS4aAy-71">
          <mxGeometry x="-0.4122" y="-4" relative="1" as="geometry">
            <mxPoint x="1" as="offset" />
          </mxGeometry>
        </mxCell>
        <mxCell id="0GWwVRd2wh_KG7VS4aAy-58" value="Validation succeeded?" style="rhombus;whiteSpace=wrap;html=1;" vertex="1" parent="1">
          <mxGeometry x="545" y="440" width="80" height="80" as="geometry" />
        </mxCell>
        <mxCell id="0GWwVRd2wh_KG7VS4aAy-65" value="" style="edgeStyle=orthogonalEdgeStyle;rounded=0;orthogonalLoop=1;jettySize=auto;html=1;" edge="1" parent="1" source="0GWwVRd2wh_KG7VS4aAy-62" target="0GWwVRd2wh_KG7VS4aAy-64">
          <mxGeometry relative="1" as="geometry" />
        </mxCell>
        <mxCell id="0GWwVRd2wh_KG7VS4aAy-62" value="Parse Input Files" style="rounded=1;whiteSpace=wrap;html=1;" vertex="1" parent="1">
          <mxGeometry x="525" y="570" width="120" height="60" as="geometry" />
        </mxCell>
        <mxCell id="0GWwVRd2wh_KG7VS4aAy-66" style="edgeStyle=orthogonalEdgeStyle;rounded=0;orthogonalLoop=1;jettySize=auto;html=1;" edge="1" parent="1" source="0GWwVRd2wh_KG7VS4aAy-64" target="0GWwVRd2wh_KG7VS4aAy-48">
          <mxGeometry relative="1" as="geometry" />
        </mxCell>
        <mxCell id="0GWwVRd2wh_KG7VS4aAy-67" value="No" style="edgeLabel;html=1;align=center;verticalAlign=middle;resizable=0;points=[];" vertex="1" connectable="0" parent="0GWwVRd2wh_KG7VS4aAy-66">
          <mxGeometry x="-0.5662" y="-5" relative="1" as="geometry">
            <mxPoint y="-5" as="offset" />
          </mxGeometry>
        </mxCell>
        <mxCell id="0GWwVRd2wh_KG7VS4aAy-69" value="Yes" style="edgeStyle=orthogonalEdgeStyle;rounded=0;orthogonalLoop=1;jettySize=auto;html=1;" edge="1" parent="1" source="0GWwVRd2wh_KG7VS4aAy-64" target="0GWwVRd2wh_KG7VS4aAy-68">
          <mxGeometry relative="1" as="geometry" />
        </mxCell>
        <mxCell id="0GWwVRd2wh_KG7VS4aAy-64" value="Input file parsing succeeded?" style="rhombus;whiteSpace=wrap;html=1;" vertex="1" parent="1">
          <mxGeometry x="545" y="680" width="80" height="80" as="geometry" />
        </mxCell>
        <mxCell id="0GWwVRd2wh_KG7VS4aAy-70" style="edgeStyle=orthogonalEdgeStyle;rounded=0;orthogonalLoop=1;jettySize=auto;html=1;exitX=1;exitY=0.5;exitDx=0;exitDy=0;" edge="1" parent="1" source="0GWwVRd2wh_KG7VS4aAy-68" target="0GWwVRd2wh_KG7VS4aAy-48">
          <mxGeometry relative="1" as="geometry" />
        </mxCell>
        <mxCell id="0GWwVRd2wh_KG7VS4aAy-68" value="Run Simulation" style="rounded=1;whiteSpace=wrap;html=1;" vertex="1" parent="1">
          <mxGeometry x="525" y="826" width="120" height="60" as="geometry" />
        </mxCell>
      </root>
    </mxGraphModel>
  </diagram>
</mxfile>
